<?xml version="1.0" standalone="no"?>
<!DOCTYPE svg PUBLIC "-//W3C//DTD SVG 1.1//EN" "http://www.w3.org/Graphics/SVG/1.1/DTD/svg11.dtd" >
<svg xmlns="http://www.w3.org/2000/svg" xmlns:xlink="http://www.w3.org/1999/xlink" version="1.1">
<metadata>
Created by FontForge 20201107 at Fri Jul 19 05:36:11 2024
 By 
Copyright (c) 2015 by Mattox Shuler. All rights reserved.
</metadata>
<defs>
<font id="Termina-Black" horiz-adv-x="1730" >
  <font-face 
    font-family="Termina Test Black"
    font-weight="900"
    font-stretch="normal"
    units-per-em="2048"
    panose-1="0 0 10 0 0 0 0 0 0 0"
    ascent="1638"
    descent="-410"
    x-height="1147"
    cap-height="1434"
    bbox="-213 -455 2666 1710"
    underline-thickness="102"
    underline-position="-204"
    unicode-range="U+0020-007A"
  />
<missing-glyph horiz-adv-x="1034" 
 />
    <glyph glyph-name=".notdef" horiz-adv-x="1034" 
 />
    <glyph glyph-name=".null" horiz-adv-x="0" 
 />
    <glyph glyph-name="nonmarkingreturn" horiz-adv-x="682" 
 />
    <glyph glyph-name="space" unicode=" " horiz-adv-x="479" 
 />
    <glyph glyph-name="comma" unicode="," horiz-adv-x="747" 
d="M360 492q99 0 174 -48t112.5 -124t37.5 -166q0 -69 -25 -146.5t-73.5 -156t-130.5 -152.5t-187 -125l-98 156q193 109 248 258q-21 -21 -72 -21q-119 0 -201 76t-82 186q0 111 84.5 187t212.5 76z" />
    <glyph glyph-name="hyphen" unicode="-" horiz-adv-x="1269" 
d="M1157 422h-1044v409h1044v-409z" />
    <glyph glyph-name="period" unicode="." horiz-adv-x="737" 
d="M369 -33q-134 0 -220 75t-86 187t86.5 187.5t219.5 75.5t219 -75.5t86 -187.5t-86 -187t-219 -75z" />
    <glyph glyph-name="zero" unicode="0" horiz-adv-x="1990" 
d="M995 -49q-284 0 -493 87.5t-325 261.5t-116 417t116 417t325 261.5t493 87.5t493 -87.5t325 -261.5t116 -417t-116 -417t-325 -261.5t-493 -87.5zM995 389q168 0 260.5 87t92.5 241t-92.5 240.5t-260.5 86.5t-260 -86.5t-92 -240.5q0 -155 92 -241.5t260 -86.5z" />
    <glyph glyph-name="one" unicode="1" horiz-adv-x="1159" 
d="M459 0v883q-149 -78 -416 -125v428q146 20 300.5 89t256.5 159h432v-1434h-573z" />
    <glyph glyph-name="two" unicode="2" horiz-adv-x="1738" 
d="M63 1188q133 128 353 209.5t471 81.5q141 0 269 -25.5t237.5 -77.5t175 -142.5t65.5 -209.5q0 -90 -38.5 -166t-110 -133.5t-162.5 -100.5t-207 -75q-135 -37 -253 -80.5t-150 -67.5h946v-401h-1596v242q24 224 205 392.5t500 252.5q182 48 228 68q61 28 61 59
q0 34 -59 55t-142 21q-124 0 -256 -52t-250 -151z" />
    <glyph glyph-name="three" unicode="3" horiz-adv-x="1736" 
d="M358 520q207 -172 443 -172q48 0 91 5.5t84 17.5t65 36t24 58q0 32 -21 52.5t-62.5 29.5t-77.5 11.5t-89 2.5h-252v340h252q41 0 77 4.5t68 14t51 28t19 43.5q0 94 -235 94q-231 0 -424 -172l-328 250q121 148 332.5 232t460.5 84q120 0 230.5 -14t211.5 -45t174.5 -77.5
t117.5 -116t44 -155.5q0 -122 -84.5 -218t-241.5 -118q176 -33 278.5 -115t102.5 -219q0 -143 -112.5 -245.5t-298 -151.5t-422.5 -49q-252 0 -465.5 83.5t-339.5 231.5z" />
    <glyph glyph-name="four" unicode="4" horiz-adv-x="1882" 
d="M1835 618v-380h-252v-238h-553v238h-1005v307l1046 889h512v-816h252zM670 618h360v310z" />
    <glyph glyph-name="five" unicode="5" horiz-adv-x="1777" 
d="M303 518q96 -60 253 -103.5t329 -43.5q128 0 193 23.5t65 82.5q0 113 -258 113q-217 0 -377 -74l-397 141l122 777h1344v-390h-915l-35 -210q89 62 215 97.5t264 35.5q90 0 176.5 -17.5t167.5 -57t142 -96t97.5 -140t36.5 -183.5q0 -85 -26 -159.5t-88 -142.5
t-156.5 -115.5t-240.5 -76t-330 -28.5q-498 0 -842 227z" />
    <glyph glyph-name="six" unicode="6" horiz-adv-x="1882" 
d="M1108 965q64 0 128 -6.5t135 -22t134 -39.5t121 -61.5t100 -85.5t66.5 -114t24.5 -144q0 -116 -53.5 -214t-155.5 -171.5t-261.5 -114.5t-359.5 -41q-281 0 -490 91.5t-322.5 265t-113.5 409.5t113.5 409.5t322.5 265t490 91.5q257 0 461.5 -62t339.5 -170l-277 -290
q-93 67 -213.5 105t-240.5 38q-75 0 -136 -11t-115.5 -37t-93 -74.5t-57.5 -117.5q182 101 453 101zM987 330q254 0 254 145q0 146 -254 146q-180 0 -330 -72q17 -63 49.5 -107t77 -68t93.5 -34t110 -10z" />
    <glyph glyph-name="seven" unicode="7" horiz-adv-x="1628" 
d="M229 0l699 1014h-887v420h1561v-322l-736 -1112h-637z" />
    <glyph glyph-name="eight" unicode="8" horiz-adv-x="1867" 
d="M1419 743q174 -33 277.5 -118.5t103.5 -223.5q0 -141 -111.5 -243.5t-306 -154.5t-448.5 -52t-448.5 52t-306 154.5t-111.5 243.5q0 138 103.5 223.5t277.5 118.5q-158 22 -242 114.5t-84 213.5q0 84 43 153t118.5 116.5t178.5 80t221.5 47.5t249.5 15t249.5 -15
t221.5 -47.5t178.5 -80t118.5 -116.5t43 -153q0 -121 -84 -213.5t-242 -114.5zM698 1010q0 -53 69.5 -85t166.5 -32t166 32t69 85t-69 84.5t-166 31.5t-166.5 -31.5t-69.5 -84.5zM934 307q71 0 130 13.5t99.5 46t40.5 79.5t-40.5 79.5t-99.5 46.5t-130 14t-130 -14
t-99.5 -46.5t-40.5 -79.5t40.5 -79.5t99.5 -46t130 -13.5z" />
    <glyph glyph-name="nine" unicode="9" horiz-adv-x="1882" 
d="M895 1483q281 0 490 -91.5t322.5 -265t113.5 -409.5t-113.5 -409.5t-322.5 -265t-490 -91.5q-258 0 -462 62t-339 169l277 291q93 -67 213.5 -105t240.5 -38q102 0 178 19t138 74t86 146q-180 -100 -453 -100q-91 0 -182 12.5t-188 46.5t-170 85t-120.5 136t-47.5 193
q0 116 53.5 214t155 171.5t261 114.5t359.5 41zM641 958q0 -145 254 -145q180 0 330 72q-17 63 -49.5 107t-77 68t-93.5 34t-110 10q-120 0 -187 -36t-67 -110z" />
    <glyph glyph-name="A" unicode="A" horiz-adv-x="1986" 
d="M1415 0l-100 225h-651l-101 -225h-594l713 1434h623l712 -1434h-602zM819 573h340l-170 381z" />
    <glyph glyph-name="B" unicode="B" horiz-adv-x="1955" 
d="M1479 741q117 -8 212 -49.5t154.5 -119.5t59.5 -181q0 -176 -163 -283.5t-437 -107.5h-1178v1434h1096q273 0 436.5 -104t163.5 -273q0 -125 -93 -216t-251 -100zM692 1085v-204h434q56 0 92.5 26t36.5 76t-36.5 76t-92.5 26h-434zM1182 348q62 0 98.5 30.5t36.5 82.5
t-36.5 82t-98.5 30h-490v-225h490z" />
    <glyph glyph-name="C" unicode="C" horiz-adv-x="1855" 
d="M1008 389q245 0 372 195l461 -244q-98 -174 -323.5 -281.5t-522.5 -107.5q-205 0 -376 51t-295.5 146.5t-193.5 241t-69 327.5q0 242 121.5 416.5t335.5 262t498 87.5q280 0 501 -108.5t316 -276.5l-461 -244q-126 190 -364 190q-165 0 -265 -87.5t-100 -239.5t100 -240
t265 -88z" />
    <glyph glyph-name="D" unicode="D" horiz-adv-x="1982" 
d="M995 1434q428 0 677 -189t249 -528t-249 -528t-677 -189h-868v1434h868zM946 426q184 0 286.5 76.5t102.5 214.5t-102.5 214.5t-286.5 76.5h-246v-582h246z" />
    <glyph glyph-name="E" unicode="E" horiz-adv-x="1820" 
d="M688 397h1057v-397h-1618v1434h1595v-398h-1034v-133h832v-356h-832v-150z" />
    <glyph glyph-name="F" unicode="F" horiz-adv-x="1757" 
d="M1714 1020h-1014v-168h832v-399h-832v-453h-573v1434h1587v-414z" />
    <glyph glyph-name="G" unicode="G" horiz-adv-x="1972" 
d="M1888 864v-626q-130 -140 -341 -213.5t-488 -73.5q-306 0 -529.5 87t-346 260.5t-122.5 418.5t122.5 418.5t345.5 260.5t528 87q257 0 456 -68t330 -182l-387 -293q-92 69 -176.5 97t-198.5 28q-219 0 -328.5 -92t-109.5 -256q0 -167 111.5 -262t326.5 -95q149 0 279 54
v112h-361v338h889z" />
    <glyph glyph-name="H" unicode="H" horiz-adv-x="2056" 
d="M1356 1434h573v-1434h-573v508h-656v-508h-573v1434h573v-488h656v488z" />
    <glyph glyph-name="I" unicode="I" horiz-adv-x="827" 
d="M700 0h-573v1434h573v-1434z" />
    <glyph glyph-name="J" unicode="J" horiz-adv-x="1589" 
d="M326 557q74 -85 149.5 -124.5t171.5 -39.5q266 0 266 307v734h574v-779q0 -325 -218 -514.5t-610 -189.5q-446 0 -696 278z" />
    <glyph glyph-name="K" unicode="K" horiz-adv-x="1902" 
d="M1937 0h-663l-354 508l-220 -215v-293h-573v1434h573v-555l525 555h680l-588 -580z" />
    <glyph glyph-name="L" unicode="L" horiz-adv-x="1611" 
d="M700 426h881v-426h-1454v1434h573v-1008z" />
    <glyph glyph-name="M" unicode="M" horiz-adv-x="2342" 
d="M1610 1434h606v-1434h-565v776l-471 -588h-29l-471 588v-776h-553v1434h627l426 -568z" />
    <glyph glyph-name="N" unicode="N" horiz-adv-x="2056" 
d="M1376 1434h553v-1434h-504l-745 780v-780h-553v1434h606l643 -691v691z" />
    <glyph glyph-name="O" unicode="O" horiz-adv-x="2072" 
d="M1036 -49q-292 0 -510.5 87.5t-341.5 261.5t-123 417t123 417t341.5 261.5t510.5 87.5t510.5 -87.5t341.5 -261.5t123 -417t-123 -417t-341.5 -261.5t-510.5 -87.5zM1036 389q185 0 289.5 87t104.5 241t-104.5 240.5t-289.5 86.5t-289 -86.5t-104 -240.5t104.5 -241
t288.5 -87z" />
    <glyph glyph-name="P" unicode="P" horiz-adv-x="1894" 
d="M1143 1434q219 0 378 -57t249 -177.5t90 -296.5t-90 -296.5t-248.5 -177t-378.5 -56.5h-443v-373h-573v1434h1016zM1096 733q85 0 135.5 37.5t50.5 116.5t-50.5 116t-135.5 37h-396v-307h396z" />
    <glyph glyph-name="Q" unicode="Q" horiz-adv-x="2072" 
d="M2011 717q0 -359 -262 -563l166 -177l-238 -196l-215 227q-196 -57 -426 -57q-292 0 -510.5 87.5t-341.5 261.5t-123 417t123 417t341.5 261.5t510.5 87.5t510.5 -87.5t341.5 -261.5t123 -417zM1036 389q44 0 64 2l-142 150l238 196l186 -196q48 76 48 176
q0 154 -104.5 240.5t-289.5 86.5t-289 -86.5t-104 -240.5t104.5 -241t288.5 -87z" />
    <glyph glyph-name="R" unicode="R" horiz-adv-x="1953" 
d="M1921 0h-647l-322 393h-256v-393h-569v1434h1030q152 0 280.5 -32t227.5 -94.5t155 -163.5t56 -231q0 -169 -91 -285t-253 -175zM696 1040v-286h412q188 0 188 143t-188 143h-412z" />
    <glyph glyph-name="S" unicode="S" horiz-adv-x="1859" 
d="M965 956q112 -9 201 -21t178 -31t156 -44t126 -61.5t96 -82t58.5 -106.5t21.5 -135q0 -244 -211 -384t-608 -140q-283 0 -527.5 69t-424.5 197l274 315q127 -86 307.5 -140t378.5 -54q248 0 248 76q0 26 -23.5 41.5t-87.5 28t-184 22.5q-121 10 -221 26t-199.5 41
t-174 61.5t-133.5 85.5t-89.5 116t-30.5 149q0 157 108 271t293 170.5t425 56.5q229 0 445.5 -52t375.5 -151l-260 -317q-231 139 -559 139q-265 0 -265 -68q0 -33 69 -49t237 -29z" />
    <glyph glyph-name="T" unicode="T" horiz-adv-x="1712" 
d="M1683 1434v-420h-540v-1014h-574v1014h-540v420h1654z" />
    <glyph glyph-name="U" unicode="U" horiz-adv-x="1966" 
d="M1290 1434h574v-758q0 -339 -231.5 -532t-649.5 -193t-649.5 193t-231.5 532v758h574v-713q0 -70 17.5 -128t53.5 -103.5t96 -71t140 -25.5t140 25.5t96 71t53.5 103.5t17.5 128v713z" />
    <glyph glyph-name="V" unicode="V" horiz-adv-x="1863" 
d="M-31 1434h611l356 -904l356 904h602l-663 -1434h-598z" />
    <glyph glyph-name="W" unicode="W" horiz-adv-x="2662" 
d="M2105 1434h561l-520 -1434h-557l-258 850l-258 -850h-557l-520 1434h569l246 -856l272 856h504l273 -856z" />
    <glyph glyph-name="X" unicode="X" horiz-adv-x="1849" 
d="M1862 1434l-617 -695l637 -739h-676l-301 367l-301 -367h-637l635 731l-614 703h676l280 -342l281 342h637z" />
    <glyph glyph-name="Y" unicode="Y" horiz-adv-x="1798" 
d="M-31 1434h627l305 -525l303 525h625l-643 -963v-471h-574v471z" />
    <glyph glyph-name="Z" unicode="Z" horiz-adv-x="1847" 
d="M1739 1434v-328l-848 -705h881v-401h-1700v328l848 704h-811v402h1630z" />
    <glyph glyph-name="a" unicode="a" horiz-adv-x="1617" 
d="M776 1192q352 0 547 -143t195 -404v-432q0 -119 47 -213h-553q-35 40 -35 86v6q-65 -63 -170.5 -98t-235.5 -35q-74 0 -144.5 11.5t-140.5 39.5t-122 70t-84.5 108.5t-32.5 149.5t32.5 149.5t84.5 108.5t122 70t140.5 39.5t144.5 11.5q130 0 235.5 -35t170.5 -98v69
q0 84 -83 132.5t-235 48.5q-208 0 -401 -80l-92 338q119 48 288 74t322 26zM985 332v12q-83 88 -235 88q-70 0 -120 -23t-50 -71t50 -71t120 -23q152 0 235 88z" />
    <glyph glyph-name="b" unicode="b" 
d="M1085 1188q269 0 430.5 -164t161.5 -451t-161.5 -450.5t-430.5 -163.5q-272 0 -423 178v-137h-553v1516h553v-506q151 178 423 178zM918 348q115 0 177 61t62 164q0 104 -62 165t-177 61q-159 0 -256 -123v-205q97 -123 256 -123z" />
    <glyph glyph-name="c" unicode="c" horiz-adv-x="1521" 
d="M1505 305q-37 -74 -94.5 -136t-139.5 -112t-197.5 -78t-252.5 -28q-353 0 -560.5 167t-207.5 455t207.5 455.5t560.5 167.5q137 0 251.5 -28.5t196 -79t137 -110.5t91.5 -132l-440 -180q-65 129 -230 129q-116 0 -185 -60t-69 -162t69 -161.5t185 -59.5q170 0 238 133z
" />
    <glyph glyph-name="d" unicode="d" 
d="M645 1188q273 0 424 -178v506h553v-1516h-553v137q-151 -178 -424 -178q-269 0 -430.5 163.5t-161.5 450.5t161.5 451t430.5 164zM813 348q159 0 256 123v205q-97 123 -256 123q-115 0 -177.5 -61.5t-62.5 -164.5t62.5 -164t177.5 -61z" />
    <glyph glyph-name="e" unicode="e" horiz-adv-x="1597" 
d="M575 461q28 -82 105.5 -116t212.5 -34q115 0 190 23.5t158 79.5l262 -264q-227 -199 -641 -199q-383 0 -596 164t-213 458q0 290 205.5 456.5t560.5 166.5q155 0 286.5 -38.5t231 -112t155.5 -190t56 -263.5q0 -75 -16 -131h-957zM823 844q-185 0 -241 -137h473
q-54 137 -232 137z" />
    <glyph glyph-name="f" unicode="f" horiz-adv-x="1175" 
d="M940 1251q-83 0 -129.5 -29.5t-54.5 -74.5h395v-369h-379v-778h-553v778h-184v369h188q16 136 91.5 230.5t193.5 139t272 44.5q94 0 202.5 -14.5t180.5 -43.5l-47 -280q-106 28 -176 28z" />
    <glyph glyph-name="g" unicode="g" 
d="M1622 1147v-899q0 -160 -51.5 -285t-133 -201.5t-193.5 -126t-222 -68t-229 -18.5q-164 0 -341.5 33.5t-293.5 89.5l127 330q66 -37 192.5 -65.5t245.5 -28.5q180 0 263 65.5t83 167.5v78q-151 -178 -424 -178q-270 0 -431 151.5t-161 421.5q0 271 161 422.5t431 151.5
q273 0 424 -178v137h553zM803 418q155 0 266 135v123q-111 135 -266 135q-110 0 -170 -54t-60 -143q0 -88 60.5 -142t169.5 -54z" />
    <glyph glyph-name="h" unicode="h" horiz-adv-x="1679" 
d="M1083 1188q232 0 367 -138t135 -360v-690h-553v657q0 63 -41 102.5t-110 39.5q-117 0 -219 -135v-664h-553v1147v369h553v-410v-111q156 193 421 193z" />
    <glyph glyph-name="i" unicode="i" horiz-adv-x="770" 
d="M385 1223q-136 0 -220.5 66t-84.5 177t84.5 177.5t220.5 66.5t220.5 -66.5t84.5 -177.5t-84.5 -177t-220.5 -66zM662 1147v-1147h-553v1147h553z" />
    <glyph glyph-name="j" unicode="j" horiz-adv-x="770" 
d="M385 1223q-136 0 -220.5 66t-84.5 177t84.5 177.5t220.5 66.5t220.5 -66.5t84.5 -177.5t-84.5 -177t-220.5 -66zM109 1147h553v-1069q0 -246 -147 -389.5t-396 -143.5q-164 0 -332 58l70 321q74 -22 123 -22q56 0 92.5 31t36.5 94v1120z" />
    <glyph glyph-name="k" unicode="k" horiz-adv-x="1611" 
d="M1059 0l-246 371l-151 -152v-219h-553v1516h553v-781l366 412h588l-440 -475l462 -672h-579z" />
    <glyph glyph-name="l" unicode="l" horiz-adv-x="770" 
d="M662 0h-553v1516h553v-1516z" />
    <glyph glyph-name="m" unicode="m" horiz-adv-x="2537" 
d="M1958 1188q234 0 359.5 -137t125.5 -363v-688h-553v657q0 63 -35.5 102.5t-99.5 39.5q-114 0 -203 -144v-655h-553v657q0 63 -35.5 102.5t-99.5 39.5q-113 0 -202 -144v-655h-553v1147h553v-156q145 197 405 197q166 0 279 -70.5t165 -197.5q59 120 171.5 194t275.5 74z
" />
    <glyph glyph-name="n" unicode="n" horiz-adv-x="1679" 
d="M662 0h-553v1147h553v-152q156 193 421 193q232 0 367 -138t135 -360v-690h-553v657q0 63 -41 102.5t-110 39.5q-117 0 -219 -135v-664z" />
    <glyph glyph-name="o" unicode="o" horiz-adv-x="1662" 
d="M831 -49q-235 0 -411 74.5t-271.5 215.5t-95.5 332q0 289 210.5 456t567.5 167q235 0 411 -74.5t272 -216t96 -332.5t-96 -332t-272 -215.5t-411 -74.5zM831 352q116 0 187.5 59t71.5 162t-71.5 162.5t-187.5 59.5q-115 0 -186.5 -59.5t-71.5 -162.5q0 -102 71.5 -161.5
t186.5 -59.5z" />
    <glyph glyph-name="p" unicode="p" 
d="M1085 -41q-272 0 -423 178v-547h-553v1557h553v-137q151 178 423 178q269 0 430.5 -164t161.5 -451t-161.5 -450.5t-430.5 -163.5zM918 799q-159 0 -256 -123v-205q97 -123 256 -123q115 0 177 61t62 164q0 104 -62 165t-177 61z" />
    <glyph glyph-name="q" unicode="q" 
d="M645 -41q-269 0 -430.5 163.5t-161.5 450.5t161.5 451t430.5 164q273 0 424 -178v137h553v-1557h-553v547q-151 -178 -424 -178zM813 799q-115 0 -177.5 -61.5t-62.5 -164.5t62.5 -164t177.5 -61q159 0 256 123v205q-97 123 -256 123z" />
    <glyph glyph-name="r" unicode="r" horiz-adv-x="1118" 
d="M662 0h-553v1147h553v-172q137 201 425 201v-447q-177 0 -285.5 -63.5t-139.5 -186.5v-479z" />
    <glyph glyph-name="s" unicode="s" horiz-adv-x="1523" 
d="M809 774q146 -7 264 -32t213 -70t147 -118t52 -169q0 -89 -44 -166.5t-129.5 -138t-225 -95t-318.5 -34.5q-427 0 -741 190l215 269q242 -131 542 -131q97 0 139 10t42 37q0 26 -44 37.5t-167 17.5q-135 7 -252 33t-215.5 72.5t-155.5 122.5t-57 173q0 186 195 300
t507 114q407 0 666 -137l-219 -279q-172 88 -449 88q-186 0 -186 -45q0 -25 46 -33.5t175 -15.5z" />
    <glyph glyph-name="t" unicode="t" horiz-adv-x="1214" 
d="M1108 418l68 -344q-80 -57 -205 -88t-242 -31q-229 0 -369.5 123.5t-140.5 349.5v350h-184v369h184v264h553v-264h391v-369h-391v-262q0 -63 43 -102t119 -39q67 0 174 43z" />
    <glyph glyph-name="u" unicode="u" horiz-adv-x="1679" 
d="M1018 1147h553v-1147h-553v152q-156 -193 -422 -193q-232 0 -367 138t-135 360v690h553v-658q0 -62 41 -101.5t111 -39.5q117 0 219 135v664z" />
    <glyph glyph-name="v" unicode="v" horiz-adv-x="1605" 
d="M1620 1147l-537 -1147h-561l-536 1147h567l254 -651l254 651h559z" />
    <glyph glyph-name="w" unicode="w" horiz-adv-x="2220" 
d="M1704 1147h512l-389 -1147h-514l-203 639l-203 -639h-514l-389 1147h520l172 -602l185 602h467l184 -602z" />
    <glyph glyph-name="x" unicode="x" horiz-adv-x="1585" 
d="M1583 1147l-485 -555l501 -592h-608l-213 274l-215 -274h-577l501 584l-485 563h608l199 -256l199 256h575z" />
    <glyph glyph-name="y" unicode="y" horiz-adv-x="1572" 
d="M1036 1147h551l-747 -1557h-551l237 465l-540 1092h559l254 -606z" />
    <glyph glyph-name="z" unicode="z" horiz-adv-x="1511" 
d="M1417 1147v-316l-602 -446h627v-385h-1376v315l602 447h-574v385h1323z" />
    </font>
</defs>
</svg>
