<?xml version="1.0" standalone="no"?>
<!DOCTYPE svg PUBLIC "-//W3C//DTD SVG 1.1//EN" "http://www.w3.org/Graphics/SVG/1.1/DTD/svg11.dtd" >
<svg xmlns="http://www.w3.org/2000/svg" xmlns:xlink="http://www.w3.org/1999/xlink" version="1.1">
<metadata>
Created by FontForge 20201107 at Fri Jul 19 05:36:11 2024
 By 
Copyright (c) 2015 by Mattox Shuler. All rights reserved.
</metadata>
<defs>
<font id="Termina-Thin" horiz-adv-x="1626" >
  <font-face 
    font-family="Termina Test Thin"
    font-weight="200"
    font-stretch="normal"
    units-per-em="2048"
    panose-1="0 0 3 0 0 0 0 0 0 0"
    ascent="1638"
    descent="-410"
    x-height="1106"
    cap-height="1434"
    bbox="-115 -451 2322 1556"
    underline-thickness="102"
    underline-position="-204"
    unicode-range="U+0020-007A"
  />
<missing-glyph horiz-adv-x="1034" 
 />
    <glyph glyph-name=".notdef" horiz-adv-x="1034" 
 />
    <glyph glyph-name=".null" horiz-adv-x="0" 
 />
    <glyph glyph-name="nonmarkingreturn" horiz-adv-x="682" 
 />
    <glyph glyph-name="space" unicode=" " horiz-adv-x="688" 
 />
    <glyph glyph-name="comma" unicode="," horiz-adv-x="464" 
d="M238 86q23 0 36 -13.5t13 -35.5q0 -138 -72 -279l-27 13q63 120 66 223q-3 -6 -21 -6q-21 0 -33 13.5t-12 35.5t13.5 35.5t36.5 13.5z" />
    <glyph glyph-name="hyphen" unicode="-" horiz-adv-x="1220" 
d="M1020 588h-819v39h819v-39z" />
    <glyph glyph-name="period" unicode="." horiz-adv-x="454" 
d="M227 -12q-23 0 -36 13.5t-13 35.5t13 35.5t36 13.5t36 -13.5t13 -35.5t-13 -35.5t-36 -13.5z" />
    <glyph glyph-name="zero" unicode="0" horiz-adv-x="1912" 
d="M956 -41q-378 0 -588 205t-210 553t210 553t588 205q189 0 340 -54t251.5 -153.5t154 -239.5t53.5 -311t-53.5 -311t-154 -239.5t-251.5 -153.5t-340 -54zM956 -2q349 0 552.5 190t203.5 529t-203.5 529t-552.5 190t-552 -189.5t-203 -529.5t203 -529.5t552 -189.5z" />
    <glyph glyph-name="one" unicode="1" horiz-adv-x="849" 
d="M535 0v1380q-210 -194 -457 -233v39q223 35 465 248h32v-1434h-40z" />
    <glyph glyph-name="two" unicode="2" horiz-adv-x="1650" 
d="M174 1116q79 163 253.5 261t412.5 98q125 0 239.5 -29t203 -82t141.5 -132.5t53 -174.5q0 -49 -15.5 -93t-41 -79.5t-70 -70.5t-89 -62t-112.5 -58t-127 -54.5t-145 -55.5q-184 -69 -331 -152t-250 -186t-128 -207h1345v-39h-1394v33q39 169 234.5 320.5t512.5 271.5
q126 48 187.5 72.5t149.5 69t128.5 81.5t71.5 91.5t31 117.5q0 87 -49.5 159.5t-132 120t-189.5 73.5t-223 26q-225 0 -388 -90t-243 -248z" />
    <glyph glyph-name="three" unicode="3" horiz-adv-x="1710" 
d="M152 338q154 -340 677 -340q307 0 493.5 109t186.5 288q0 117 -85 198.5t-236.5 121t-358.5 39.5h-163v39h163q131 0 239.5 17.5t197 54t138.5 101t50 150.5q0 96 -87 170t-228 112t-310 38q-234 0 -394 -76.5t-232 -216.5l-37 18q73 147 245 230.5t418 83.5
q179 0 330.5 -43t244.5 -126t93 -190q0 -78 -39.5 -143t-104.5 -106t-143 -64.5t-161 -26.5q70 -6 137 -22t134.5 -46.5t118 -71.5t82 -103.5t31.5 -137.5q0 -195 -199.5 -315.5t-523.5 -120.5q-146 0 -266 27t-206.5 76t-146.5 113t-95 144z" />
    <glyph glyph-name="four" unicode="4" horiz-adv-x="1726" 
d="M1638 446v-38h-333v-408h-41v408h-1186v38l1194 988h33v-988h333zM143 446h1121v928z" />
    <glyph glyph-name="five" unicode="5" horiz-adv-x="1699" 
d="M174 365q74 -168 248 -267.5t440 -99.5q298 0 485 119.5t187 302.5q0 207 -182 315.5t-498 108.5q-325 0 -627 -131l-28 8l123 713h1105v-39h-1073l-110 -641q156 73 299.5 101t310.5 28q165 0 296.5 -28.5t227.5 -84.5t147.5 -145t51.5 -205q0 -131 -89.5 -236
t-253.5 -165t-372 -60q-278 0 -464.5 106.5t-258.5 280.5z" />
    <glyph glyph-name="six" unicode="6" horiz-adv-x="1789" 
d="M993 883q308 0 483 -116.5t175 -346.5q0 -131 -87 -236t-247.5 -165t-364.5 -60q-373 0 -583.5 205.5t-210.5 552.5t210.5 552.5t583.5 205.5q419 0 633 -265l-33 -26q-206 252 -600 252q-227 0 -395.5 -83.5t-262 -247t-93.5 -388.5q0 -121 28 -230q80 172 293.5 284
t470.5 112zM952 -2q292 0 474 119.5t182 302.5q0 208 -163.5 316t-451.5 108q-246 0 -449.5 -107.5t-301.5 -292.5q73 -214 259 -330t451 -116z" />
    <glyph glyph-name="seven" unicode="7" horiz-adv-x="1507" 
d="M524 0l879 1395h-1344v39h1397v-33l-878 -1401h-54z" />
    <glyph glyph-name="eight" unicode="8" horiz-adv-x="1802" 
d="M1128 776q71 -6 138.5 -22t138 -47.5t122.5 -74.5t85 -109.5t33 -147.5q0 -181 -207 -298.5t-537 -117.5q-218 0 -388 54t-262.5 148.5t-92.5 213.5q0 81 33 147.5t85 109.5t122 74.5t137.5 47.5t138.5 22q-85 4 -165.5 27.5t-147.5 64.5t-107.5 105.5t-40.5 142.5
q0 107 95.5 190t251 126t341.5 43t341.5 -43t251 -126t95.5 -190q0 -78 -40.5 -142.5t-107.5 -105.5t-147.5 -64.5t-165.5 -27.5zM256 1116q0 -86 51 -150t142.5 -101t204 -54.5t247.5 -17.5t247.5 17.5t204 54.5t142.5 101t51 150q0 96 -89.5 170t-235 112t-320.5 38
t-320.5 -38t-235 -112t-89.5 -170zM901 -2q207 0 367.5 49t247 134.5t86.5 193.5q0 188 -187 283.5t-514 95.5t-513.5 -95.5t-186.5 -283.5q0 -108 86 -193.5t246.5 -134.5t367.5 -49z" />
    <glyph glyph-name="nine" unicode="9" horiz-adv-x="1789" 
d="M838 1475q373 0 583.5 -205.5t210.5 -552.5t-210.5 -552.5t-583.5 -205.5q-420 0 -633 264l33 27q206 -252 600 -252q227 0 395.5 83.5t262 247t93.5 388.5q0 120 -28 229q-80 -172 -293.5 -283.5t-470.5 -111.5q-308 0 -483 116.5t-175 346.5q0 131 87 236t247.5 165
t364.5 60zM797 590q246 0 449.5 107t301.5 292q-73 214 -259 330.5t-451 116.5q-292 0 -474 -119.5t-182 -302.5q0 -208 163.5 -316t451.5 -108z" />
    <glyph glyph-name="A" unicode="A" horiz-adv-x="1794" 
d="M1737 0h-45l-267 465v-2h-1058l-263 -463h-47l817 1434h46zM389 502h1016l-510 891z" />
    <glyph glyph-name="B" unicode="B" horiz-adv-x="1884" 
d="M1327 743q67 -3 124 -15.5t109.5 -39.5t89 -67t58 -100.5t21.5 -137.5q0 -193 -135.5 -288t-383.5 -95h-936v1434h936q123 0 220 -37.5t157 -118.5t60 -195q0 -134 -87.5 -229.5t-232.5 -110.5zM315 1395v-639h895q170 0 282 87t112 240q0 103 -54 175t-141 104.5
t-199 32.5h-895zM1210 39q476 0 476 344q0 176 -121.5 255t-354.5 79h-895v-678h895z" />
    <glyph glyph-name="C" unicode="C" horiz-adv-x="1816" 
d="M997 -2q455 0 662 295l37 -21q-215 -313 -699 -313q-394 0 -616.5 205.5t-222.5 552.5t222.5 552.5t616.5 205.5q483 0 699 -314l-37 -20q-207 295 -662 295q-241 0 -419.5 -83.5t-277.5 -247t-99 -388.5t99 -388.5t277.5 -247t419.5 -83.5z" />
    <glyph glyph-name="D" unicode="D" horiz-adv-x="1910" 
d="M913 1434q384 0 612 -195t228 -522t-228 -522t-612 -195h-639v1434h639zM913 39q232 0 411 77.5t282.5 232.5t103.5 368t-103.5 368t-282.5 232.5t-411 77.5h-598v-1356h598z" />
    <glyph glyph-name="E" unicode="E" horiz-adv-x="1728" 
d="M315 39h1270v-39h-1311v1434h1291v-39h-1250v-645h1086v-39h-1086v-672z" />
    <glyph glyph-name="F" unicode="F" horiz-adv-x="1658" 
d="M1565 1395h-1250v-670h1086v-39h-1086v-686h-41v1434h1291v-39z" />
    <glyph glyph-name="G" unicode="G" horiz-adv-x="1939" 
d="M1796 700v-292q-74 -200 -285 -324.5t-507 -124.5q-398 0 -622 205.5t-224 552.5t224 552.5t622 205.5q492 0 710 -310l-35 -24q-210 295 -675 295q-181 0 -330 -48.5t-253.5 -139.5t-162 -226.5t-57.5 -304.5t57.5 -304.5t162 -226.5t253.5 -139.5t330 -48.5
q173 0 322 47t262 142.5t167 228.5v246h-760v38h801z" />
    <glyph glyph-name="H" unicode="H" horiz-adv-x="1982" 
d="M1667 1434h41v-1434h-41v707h-1352v-707h-41v1434h41v-689h1352v689z" />
    <glyph glyph-name="I" unicode="I" horiz-adv-x="589" 
d="M315 0h-41v1434h41v-1434z" />
    <glyph glyph-name="J" unicode="J" horiz-adv-x="1366" 
d="M98 211q139 -213 461 -213q108 0 195 28.5t147.5 80t101 123.5t59.5 157.5t19 185.5v861h41v-861q0 -101 -18.5 -189.5t-61 -167.5t-106 -135t-160 -89t-217.5 -33q-346 0 -493 229z" />
    <glyph glyph-name="K" unicode="K" horiz-adv-x="1777" 
d="M1737 0h-58l-790 850l-574 -418v-432h-41v1434h41v-953l1309 953h64l-764 -557z" />
    <glyph glyph-name="L" unicode="L" horiz-adv-x="1542" 
d="M315 39h1168v-39h-1209v1434h41v-1395z" />
    <glyph glyph-name="M" unicode="M" horiz-adv-x="2269" 
d="M1954 1434h41v-1434h-41v1370l-817 -977h-4l-818 977v-1370h-41v1434h45l816 -977z" />
    <glyph glyph-name="N" unicode="N" horiz-adv-x="1982" 
d="M1667 1434h41v-1434h-37l-1356 1382v-1382h-41v1434h50l1343 -1371v1371z" />
    <glyph glyph-name="O" unicode="O" horiz-adv-x="1994" 
d="M997 -41q-395 0 -617 205t-222 553t222 553t617 205t617.5 -205t222.5 -553t-222.5 -553t-617.5 -205zM997 -2q365 0 581 191t216 528t-216 528t-581 191q-240 0 -419 -84t-278 -247.5t-99 -387.5t99 -387.5t278 -247.5t419 -84z" />
    <glyph glyph-name="P" unicode="P" horiz-adv-x="1818" 
d="M1190 1434q240 0 379 -116t139 -312q0 -198 -139 -314.5t-379 -116.5h-875v-575h-41v1434h916zM1190 614q223 0 349 105.5t126 286.5q0 180 -126 284.5t-349 104.5h-875v-781h875z" />
    <glyph glyph-name="Q" unicode="Q" horiz-adv-x="1994" 
d="M1837 717q0 -221 -92 -387t-266 -262l229 -265l-31 -24l-235 270q-185 -90 -445 -90q-395 0 -617 205t-222 553t222 553t617 205t617.5 -205t222.5 -553zM997 -2q236 0 418 84l-274 315l30 25l279 -322q165 89 254.5 246t89.5 371q0 337 -216 528t-581 191
q-240 0 -419 -84t-278 -247.5t-99 -387.5t99 -387.5t278 -247.5t419 -84z" />
    <glyph glyph-name="R" unicode="R" horiz-adv-x="1878" 
d="M1753 0h-53l-531 600h-854v-600h-41v1434h916q239 0 378.5 -112t139.5 -304q0 -187 -129.5 -298.5t-355.5 -119.5zM315 1395v-756h875q223 0 349 101t126 278q0 175 -126.5 276t-348.5 101h-875z" />
    <glyph glyph-name="S" unicode="S" horiz-adv-x="1761" 
d="M930 756q135 -13 236 -30t193.5 -46t151 -68.5t93 -97t34.5 -131.5q0 -186 -189 -305t-531 -119q-265 0 -473.5 81t-319.5 234l35 25q106 -149 305.5 -225t452.5 -76q319 0 498 109.5t179 275.5q0 55 -21 99t-65 77.5t-101.5 58.5t-140.5 44t-170.5 32t-203.5 25
q-85 9 -153.5 18.5t-144.5 25t-134 34t-113 46.5t-90.5 61.5t-56.5 79t-21 99.5q0 93 59.5 169t158.5 123.5t223.5 73.5t259.5 26q460 0 673 -246l-34 -25q-197 229 -639 232q-113 1 -227.5 -22t-211.5 -65.5t-158 -112t-61 -153.5q0 -54 25.5 -98t74.5 -77t110.5 -57.5
t145.5 -42.5t166 -30t185 -22z" />
    <glyph glyph-name="T" unicode="T" horiz-adv-x="1597" 
d="M1540 1434v-39h-721v-1395h-41v1395h-721v39h1483z" />
    <glyph glyph-name="U" unicode="U" horiz-adv-x="1921" 
d="M1636 1434h41v-758q0 -154 -46.5 -284.5t-134.5 -227t-225 -151t-310 -54.5t-310 54.5t-225.5 151t-135 227t-46.5 284.5v758h41v-758q0 -309 180.5 -493.5t495.5 -184.5t495 184.5t180 493.5v758z" />
    <glyph glyph-name="V" unicode="V" horiz-adv-x="1753" 
d="M57 1434h47l775 -1385l772 1385h45l-799 -1434h-41z" />
    <glyph glyph-name="W" unicode="W" horiz-adv-x="2410" 
d="M2279 1434h43l-536 -1434h-41l-539 1378l-540 -1378h-41l-537 1434h45l512 -1375l539 1375h45l536 -1375z" />
    <glyph glyph-name="X" unicode="X" horiz-adv-x="1591" 
d="M1528 1434l-705 -717l705 -717h-58l-675 688l-674 -688h-58l705 717l-705 717h58l676 -689l673 689h58z" />
    <glyph glyph-name="Y" unicode="Y" horiz-adv-x="1654" 
d="M61 1434h54l714 -881l713 881h51l-745 -922v-512h-41v512z" />
    <glyph glyph-name="Z" unicode="Z" horiz-adv-x="1640" 
d="M1511 1434v-35l-1359 -1360h1392v-39h-1454v35l1360 1360h-1323v39h1384z" />
    <glyph glyph-name="a" unicode="a" horiz-adv-x="1523" 
d="M741 1147q266 0 415 -137t149 -400v-391q0 -124 53 -219h-45q-49 87 -49 221v10q-54 -125 -208 -198.5t-345 -73.5q-79 0 -158.5 12.5t-158.5 42.5t-139.5 73.5t-98 111.5t-37.5 151t37.5 151t98 111.5t139.5 73.5t158.5 42.5t158.5 12.5q192 0 345.5 -73t207.5 -199v139
q0 243 -133 371.5t-390 128.5q-147 0 -274.5 -41t-222.5 -109l-23 33q96 70 232 113t288 43zM1264 295v111q-58 143 -210 219.5t-343 76.5q-69 0 -140 -10t-146 -36t-132 -64.5t-94 -101t-37 -140.5t37 -140.5t94 -101t132 -64.5t146 -36t140 -10q190 0 342.5 77.5
t210.5 219.5z" />
    <glyph glyph-name="b" unicode="b" 
d="M862 1147q291 0 455 -163t164 -431t-164 -431t-455 -163q-196 0 -348 82.5t-235 230.5v-272h-41v1516h41v-682q83 148 235 230.5t348 82.5zM862 -2q267 0 421.5 150t154.5 405t-154.5 405t-421.5 150q-196 0 -346.5 -88.5t-236.5 -249.5v-434q86 -161 236.5 -249.5
t346.5 -88.5z" />
    <glyph glyph-name="c" unicode="c" horiz-adv-x="1474" 
d="M1356 213q-77 -121 -220.5 -187.5t-336.5 -66.5q-307 0 -480.5 160.5t-173.5 433.5t173.5 433.5t480.5 160.5q190 0 332 -65t221 -183l-33 -22q-73 113 -206.5 172t-313.5 59q-285 0 -448 -145t-163 -410t163 -410t448 -145q182 0 316.5 60.5t207.5 177.5z" />
    <glyph glyph-name="d" unicode="d" 
d="M764 1147q196 0 349 -82.5t235 -230.5v682h41v-1516h-41v272q-82 -148 -235 -230.5t-349 -82.5q-291 0 -455 163t-164 431t164 431t455 163zM764 -2q196 0 347.5 88.5t236.5 249.5v434q-85 161 -236.5 249.5t-347.5 88.5q-267 0 -421.5 -150t-154.5 -405t154.5 -405
t421.5 -150z" />
    <glyph glyph-name="e" unicode="e" horiz-adv-x="1554" 
d="M791 1147q293 0 457 -150t175 -411v-4h-39h-1196v-29q0 -265 160.5 -410t442.5 -145q190 0 326 46.5t243 150.5l26 -33q-113 -107 -253 -155t-342 -48q-304 0 -475 160.5t-171 433.5t171 433.5t475 160.5zM190 621h1188q-20 234 -173 360.5t-414 126.5q-263 0 -421 -127
t-180 -360z" />
    <glyph glyph-name="f" unicode="f" horiz-adv-x="913" 
d="M328 1276v-170h551v-39h-551v-1067h-41v1067h-240v39h240v174q0 67 25.5 121t68 87t93 50.5t104.5 17.5q197 0 317 -114l-23 -31q-113 107 -294 107q-103 0 -176.5 -65t-73.5 -177z" />
    <glyph glyph-name="g" unicode="g" 
d="M1389 1106v-1024q0 -172 -78 -293.5t-214 -180.5t-317 -59q-289 0 -512 162l25 33q216 -156 487 -156q267 0 417.5 130t150.5 366v188q-82 -148 -235 -230.5t-349 -82.5q-291 0 -455 163t-164 431t164 431t455 163q196 0 349 -82.5t235 -230.5v272h41zM764 -2
q198 0 348.5 87.5t235.5 250.5v434q-85 163 -235.5 250.5t-348.5 87.5q-267 0 -421.5 -150t-154.5 -405t154.5 -405t421.5 -150z" />
    <glyph glyph-name="h" unicode="h" horiz-adv-x="1595" 
d="M850 1147q264 0 396 -146t132 -391v-610h-41v610q0 237 -120.5 367.5t-366.5 130.5q-194 0 -341.5 -86t-229.5 -264v-758h-41v1516h41v-691q75 153 225 237.5t346 84.5z" />
    <glyph glyph-name="i" unicode="i" horiz-adv-x="524" 
d="M262 1309q-23 0 -37 13.5t-14 35.5t14 35.5t37 13.5t37 -13.5t14 -35.5t-14 -35.5t-37 -13.5zM287 1106v-1106h-41v1106h41z" />
    <glyph glyph-name="j" unicode="j" horiz-adv-x="524" 
d="M262 1309q-23 0 -37 13.5t-14 35.5t14 35.5t37 13.5t37 -13.5t14 -35.5t-14 -35.5t-37 -13.5zM242 1106h41v-1296q0 -121 -65.5 -191t-168.5 -70q-102 0 -164 37l19 33q48 -31 145 -31q91 0 142 61.5t51 164.5v1292z" />
    <glyph glyph-name="k" unicode="k" horiz-adv-x="1378" 
d="M1288 0l-596 655l-413 -305v-350h-41v1516h41v-1117l958 707h63l-577 -426l618 -680h-53z" />
    <glyph glyph-name="l" unicode="l" horiz-adv-x="532" 
d="M287 0h-41v1516h41v-1516z" />
    <glyph glyph-name="m" unicode="m" horiz-adv-x="2523" 
d="M1821 1147q128 0 223.5 -41.5t151.5 -115.5t83 -167.5t27 -206.5v-616h-41v616q0 227 -109 359.5t-335 132.5q-183 0 -322.5 -95.5t-214.5 -273.5q8 -52 8 -123v-616h-41v616q0 227 -109 359.5t-335 132.5q-183 0 -317.5 -89.5t-210.5 -258.5v-760h-41v1106h41v-277
q66 147 208 232.5t320 85.5q199 0 314 -95t153 -259q66 169 215 261.5t332 92.5z" />
    <glyph glyph-name="n" unicode="n" horiz-adv-x="1595" 
d="M279 0h-41v1106h41v-281q75 153 225 237.5t346 84.5q264 0 396 -146t132 -391v-610h-41v610q0 237 -120.5 367.5t-366.5 130.5q-194 0 -341.5 -86t-229.5 -264v-758z" />
    <glyph glyph-name="o" unicode="o" horiz-adv-x="1597" 
d="M799 -41q-307 0 -480.5 160.5t-173.5 433.5t173.5 433.5t480.5 160.5t480 -160.5t173 -433.5t-173 -433.5t-480 -160.5zM799 -2q285 0 447.5 145t162.5 410t-162.5 410t-447.5 145t-448 -145t-163 -410t163 -410t448 -145z" />
    <glyph glyph-name="p" unicode="p" 
d="M862 -41q-196 0 -348 82.5t-235 230.5v-682h-41v1516h41v-272q83 148 235 230.5t348 82.5q291 0 455 -163t164 -431t-164 -431t-455 -163zM862 1108q-196 0 -346.5 -88.5t-236.5 -249.5v-434q86 -161 236.5 -249.5t346.5 -88.5q267 0 421.5 150t154.5 405t-154.5 405
t-421.5 150z" />
    <glyph glyph-name="q" unicode="q" 
d="M764 -41q-291 0 -455 163t-164 431t164 431t455 163q196 0 349 -82.5t235 -230.5v272h41v-1516h-41v682q-82 -148 -235 -230.5t-349 -82.5zM764 1108q-267 0 -421.5 -150t-154.5 -405t154.5 -405t421.5 -150q196 0 347.5 88.5t236.5 249.5v434q-85 161 -236.5 249.5
t-347.5 88.5z" />
    <glyph glyph-name="r" unicode="r" horiz-adv-x="913" 
d="M279 0h-41v1106h41v-311q65 149 232 238t366 89v-39q-203 0 -364 -93.5t-234 -270.5v-719z" />
    <glyph glyph-name="s" unicode="s" horiz-adv-x="1402" 
d="M733 592q130 -11 226.5 -31.5t173 -54.5t116 -87.5t39.5 -125.5q0 -145 -149 -239.5t-416 -94.5q-202 0 -360.5 66t-247.5 188l35 23q178 -238 573 -238q250 0 385 82.5t135 212.5q0 64 -36.5 109.5t-111 75.5t-166.5 47.5t-224 29.5q-79 8 -139.5 16.5t-127 23t-114 35
t-87 49t-59.5 68.5t-20 89q0 97 78 169t198.5 107t261.5 35q171 0 302 -53.5t216 -143.5l-32 -26q-166 181 -486 184q-88 1 -174.5 -16.5t-158.5 -50t-117 -86.5t-45 -119q0 -42 19.5 -76.5t58 -59t84.5 -42.5t110.5 -30.5t123.5 -20.5t136 -15z" />
    <glyph glyph-name="t" unicode="t" horiz-adv-x="921" 
d="M868 94l23 -33q-147 -102 -299 -102q-80 0 -147.5 29.5t-112.5 94t-45 153.5v831h-240v39h240v258h41v-258h555v-39h-555v-827q0 -113 76 -177.5t188 -64.5q131 0 276 96z" />
    <glyph glyph-name="u" unicode="u" horiz-adv-x="1595" 
d="M1317 1106h41v-1106h-41v281q-75 -152 -225.5 -237t-346.5 -85q-264 0 -396 146t-132 391v610h41v-610q0 -237 120.5 -367.5t366.5 -130.5q194 0 342 86t230 264v758z" />
    <glyph glyph-name="v" unicode="v" horiz-adv-x="1400" 
d="M1331 1106l-610 -1106h-41l-610 1106h47l585 -1057l584 1057h45z" />
    <glyph glyph-name="w" unicode="w" horiz-adv-x="1972" 
d="M1839 1106h43l-436 -1106h-41l-418 1053l-422 -1053h-41l-434 1106h45l412 -1053l418 1053h45l417 -1053z" />
    <glyph glyph-name="x" unicode="x" horiz-adv-x="1282" 
d="M1206 1106l-538 -553l538 -553h-55l-510 524l-512 -524h-53l538 553l-538 553h55l510 -524l512 524h53z" />
    <glyph glyph-name="y" unicode="y" horiz-adv-x="1417" 
d="M1303 1106h45l-916 -1516h-49l303 496l-616 1020h47l594 -975z" />
    <glyph glyph-name="z" unicode="z" horiz-adv-x="1318" 
d="M1192 1106v-33l-1034 -1036h1061v-39h-1125v33l1036 1036h-1007v39h1069z" />
    </font>
</defs>
</svg>
