<?xml version="1.0" standalone="no"?>
<!DOCTYPE svg PUBLIC "-//W3C//DTD SVG 1.1//EN" "http://www.w3.org/Graphics/SVG/1.1/DTD/svg11.dtd" >
<svg xmlns="http://www.w3.org/2000/svg" xmlns:xlink="http://www.w3.org/1999/xlink" version="1.1">
<metadata>
Created by FontForge 20201107 at Fri Jul 19 05:36:11 2024
 By 
Copyright (c) 2015 by Mattox Shuler. All rights reserved.
</metadata>
<defs>
<font id="Termina-ExtraLight" horiz-adv-x="1628" >
  <font-face 
    font-family="Termina Test Extra Light"
    font-weight="250"
    font-stretch="normal"
    units-per-em="2048"
    panose-1="0 0 3 0 0 0 0 0 0 0"
    ascent="1638"
    descent="-410"
    x-height="1108"
    cap-height="1434"
    bbox="-119 -451 2337 1556"
    underline-thickness="102"
    underline-position="-204"
    unicode-range="U+0020-007A"
  />
<missing-glyph horiz-adv-x="1034" 
 />
    <glyph glyph-name=".notdef" horiz-adv-x="1034" 
 />
    <glyph glyph-name=".null" horiz-adv-x="0" 
 />
    <glyph glyph-name="nonmarkingreturn" horiz-adv-x="682" 
 />
    <glyph glyph-name="space" unicode=" " horiz-adv-x="681" 
 />
    <glyph glyph-name="comma" unicode="," horiz-adv-x="479" 
d="M244 109q29 0 46 -18t17 -46q0 -151 -88 -295l-33 19q69 118 76 223q-3 -6 -22 -6q-26 0 -42 17t-16 44t17.5 44.5t44.5 17.5z" />
    <glyph glyph-name="hyphen" unicode="-" horiz-adv-x="1220" 
d="M1026 580h-829v57h829v-57z" />
    <glyph glyph-name="period" unicode="." horiz-adv-x="466" 
d="M233 -14q-29 0 -46 17t-17 44t17 44.5t46 17.5t46.5 -17.5t17.5 -44.5t-17.5 -44t-46.5 -17z" />
    <glyph glyph-name="zero" unicode="0" horiz-adv-x="1914" 
d="M958 -41q-382 0 -593 204.5t-211 553.5t211 553.5t593 204.5q190 0 342 -54t253.5 -153t155.5 -239t54 -312t-54 -312t-155.5 -239t-253.5 -153t-342 -54zM958 20q340 0 538 183.5t198 513.5q0 219 -90.5 376.5t-255.5 238.5t-390 81q-342 0 -539.5 -183t-197.5 -513
t197.5 -513.5t539.5 -183.5z" />
    <glyph glyph-name="one" unicode="1" horiz-adv-x="864" 
d="M530 0v1350q-210 -188 -454 -226v62q228 35 469 248h51v-1434h-66z" />
    <glyph glyph-name="two" unicode="2" horiz-adv-x="1652" 
d="M168 1114q80 163 258 262t416 99q169 0 313 -49t236 -146.5t92 -224.5q0 -50 -15.5 -94t-40.5 -80.5t-69 -71.5t-88.5 -62t-112 -58t-126.5 -54.5t-144 -54.5q-181 -67 -323.5 -146t-242 -177t-124.5 -198h1323v-59h-1405v43q39 171 233.5 323.5t511.5 272.5
q67 25 103.5 39t94 37.5t89 38.5t75.5 38.5t67.5 43t51.5 45.5t41.5 52t23 57t9.5 65q0 109 -82 193t-211.5 125.5t-281.5 41.5q-217 0 -375.5 -87.5t-243.5 -244.5z" />
    <glyph glyph-name="three" unicode="3" horiz-adv-x="1710" 
d="M168 348q74 -154 241.5 -242t430.5 -88q290 0 469.5 104t179.5 275q0 113 -83.5 190.5t-230 114.5t-348.5 37h-168v60h168q126 0 232 17t192 52.5t134.5 96.5t48.5 143q0 93 -84.5 164.5t-218.5 107t-293 35.5q-232 0 -389 -74.5t-232 -212.5l-57 31q80 149 253 232.5
t421 83.5q179 0 330 -43.5t244 -128t93 -193.5q0 -62 -25 -116t-67 -92.5t-97.5 -67t-116.5 -44t-124 -18.5q68 -6 132 -21.5t129.5 -45.5t114 -71t79 -103t30.5 -136q0 -196 -199 -316t-519 -120q-282 0 -464 96.5t-263 261.5z" />
    <glyph glyph-name="four" unicode="4" horiz-adv-x="1732" 
d="M1647 457v-60h-330v-397h-66v397h-1177v54l1188 983h55v-977h330zM176 457h1075v889z" />
    <glyph glyph-name="five" unicode="5" horiz-adv-x="1699" 
d="M186 373q80 -163 253.5 -258t428.5 -95q287 0 466 112.5t179 291.5q0 132 -82.5 223.5t-229 135.5t-347.5 44q-321 0 -610 -129l-51 21l122 715h1119v-60h-1065l-105 -614q152 71 293 99t307 28q216 0 375 -49t251.5 -155t92.5 -261q0 -200 -199.5 -331.5t-515.5 -131.5
q-272 0 -462 104.5t-273 276.5z" />
    <glyph glyph-name="six" unicode="6" horiz-adv-x="1792" 
d="M1004 887q146 0 265 -28t206.5 -84t135.5 -145.5t48 -205.5q0 -133 -87.5 -239t-249 -166t-368.5 -60q-376 0 -588 205.5t-212 552.5t212 552.5t588 205.5q424 0 639 -263l-51 -41q-201 244 -588 244q-221 0 -385 -79.5t-256 -238t-92 -380.5q0 -103 23 -203
q91 165 299 269t461 104zM954 18q284 0 459.5 113t175.5 293q0 199 -158.5 302t-433.5 103q-234 0 -435.5 -101.5t-301.5 -274.5q70 -211 251 -323t443 -112z" />
    <glyph glyph-name="seven" unicode="7" horiz-adv-x="1511" 
d="M508 0l870 1372h-1321v62h1405v-52l-872 -1382h-82z" />
    <glyph glyph-name="eight" unicode="8" horiz-adv-x="1804" 
d="M1153 772q68 -6 133.5 -21.5t132.5 -46.5t117.5 -74t82.5 -108t32 -143q0 -185 -207.5 -302.5t-542.5 -117.5q-333 0 -540 117.5t-207 302.5q0 97 47 172.5t124 120t158.5 69t167.5 31.5q-65 4 -127.5 19t-120 43.5t-100.5 66.5t-68.5 91.5t-25.5 115.5q0 110 95 195
t251.5 128.5t345.5 43.5q190 0 346.5 -43.5t252 -128.5t95.5 -195q0 -62 -25.5 -115.5t-68.5 -91.5t-100.5 -66.5t-120 -43.5t-127.5 -19zM276 1108q0 -82 49.5 -143.5t137.5 -97.5t197.5 -53t240.5 -17t240.5 17t198 53t138.5 97.5t50 143.5q0 95 -87.5 166t-228 106
t-311.5 35t-311 -35t-227 -106t-87 -166zM901 18q203 0 358 45t239.5 127t84.5 189q0 178 -182.5 269t-499.5 91q-207 0 -357.5 -38.5t-236.5 -120.5t-86 -201q0 -159 188 -260t492 -101z" />
    <glyph glyph-name="nine" unicode="9" horiz-adv-x="1792" 
d="M838 1475q376 0 588 -205.5t212 -552.5t-212 -552.5t-588 -205.5q-425 0 -639 262l51 41q204 -244 588 -244q221 0 385 80t256 238.5t92 380.5q0 99 -23 203q-92 -165 -299.5 -269t-460.5 -104q-146 0 -265 28t-206.5 84t-135.5 145.5t-48 205.5q0 133 87.5 239t249 166
t368.5 60zM795 604q235 0 435.5 102t299.5 277q-70 209 -250.5 320.5t-441.5 111.5q-284 0 -459.5 -113t-175.5 -292q0 -133 75 -225.5t206.5 -136.5t310.5 -44z" />
    <glyph glyph-name="A" unicode="A" horiz-adv-x="1802" 
d="M1675 0l-254 449h-1042l-252 -449h-74l811 1434h74l811 -1434h-74zM414 510h972l-487 860z" />
    <glyph glyph-name="B" unicode="B" horiz-adv-x="1886" 
d="M1337 741q85 -4 154 -24t126 -60t88.5 -109t31.5 -163q0 -193 -136.5 -289t-386.5 -96h-946v1434h938q197 0 323 -91.5t126 -261.5q0 -134 -86 -229.5t-232 -110.5zM332 1372v-606h870q169 0 277 80.5t108 228.5t-107 222.5t-278 74.5h-870zM1208 61q461 0 461 326
q0 166 -118 242t-343 76h-876v-644h876z" />
    <glyph glyph-name="C" unicode="C" horiz-adv-x="1816" 
d="M997 20q445 0 643 291l62 -32q-105 -154 -282.5 -237t-422.5 -83q-397 0 -620 205t-223 553t223 553t620 205q245 0 422.5 -83t282.5 -237l-62 -33q-198 291 -643 291q-235 0 -409 -80.5t-270.5 -238.5t-96.5 -377q0 -329 210 -513t566 -184z" />
    <glyph glyph-name="D" unicode="D" horiz-adv-x="1912" 
d="M918 1434q385 0 614 -195t229 -522t-229 -522t-614 -195h-650v1434h650zM915 61q228 0 402 74.5t275.5 224.5t101.5 357q0 125 -37.5 230.5t-107 183.5t-165.5 132.5t-215 81.5t-254 27h-581v-1311h581z" />
    <glyph glyph-name="E" unicode="E" horiz-adv-x="1730" 
d="M334 61h1259v-61h-1325v1434h1305v-62h-1239v-612h1071v-62h-1071v-637z" />
    <glyph glyph-name="F" unicode="F" horiz-adv-x="1662" 
d="M1571 1372h-1237v-639h1071v-61h-1071v-672h-66v1434h1303v-62z" />
    <glyph glyph-name="G" unicode="G" horiz-adv-x="1939" 
d="M1800 709v-312q-77 -195 -288.5 -316.5t-505.5 -121.5q-401 0 -626.5 205t-225.5 553t225 553t625 205q250 0 429 -80.5t285 -227.5l-55 -39q-209 285 -659 285q-237 0 -412.5 -80t-273 -238t-97.5 -378q0 -330 212 -513.5t575 -183.5q256 0 451 102t276 292v233h-740v62
h805z" />
    <glyph glyph-name="H" unicode="H" horiz-adv-x="1986" 
d="M1653 1434h65v-1434h-65v694h-1319v-694h-66v1434h66v-676h1319v676z" />
    <glyph glyph-name="I" unicode="I" horiz-adv-x="600" 
d="M334 0h-66v1434h66v-1434z" />
    <glyph glyph-name="J" unicode="J" horiz-adv-x="1376" 
d="M115 227q134 -207 448 -207q131 0 230 42t159.5 118.5t90.5 177t30 222.5v854h66v-856q0 -102 -19.5 -191.5t-63.5 -169t-109.5 -136t-163.5 -89.5t-220 -33q-354 0 -504 231z" />
    <glyph glyph-name="K" unicode="K" horiz-adv-x="1781" 
d="M1747 0h-88l-770 836l-555 -410v-426h-66v1434h66v-932l1265 932h99l-756 -560z" />
    <glyph glyph-name="L" unicode="L" horiz-adv-x="1544" 
d="M334 61h1153v-61h-1219v1434h66v-1373z" />
    <glyph glyph-name="M" unicode="M" horiz-adv-x="2273" 
d="M1937 1434h68v-1434h-66v1337l-800 -960h-6l-801 960v-1337h-64v1434h72l797 -959z" />
    <glyph glyph-name="N" unicode="N" horiz-adv-x="1986" 
d="M1653 1434h65v-1434h-59l-1327 1352v-1352h-64v1434h74l1311 -1336v1336z" />
    <glyph glyph-name="O" unicode="O" horiz-adv-x="1996" 
d="M999 -41q-265 0 -456.5 93.5t-290 264t-98.5 400.5t98.5 400.5t290 264t456.5 93.5q398 0 622 -204.5t224 -553.5t-224 -553.5t-622 -204.5zM999 20q235 0 409.5 81.5t271 239.5t96.5 376t-96.5 376t-271 239t-409.5 81q-357 0 -567.5 -184t-210.5 -512t210.5 -512.5
t567.5 -184.5z" />
    <glyph glyph-name="P" unicode="P" horiz-adv-x="1820" 
d="M1192 1434q241 0 381.5 -117t140.5 -316q0 -201 -140.5 -318.5t-381.5 -117.5h-858v-565h-66v1434h924zM1188 627q215 0 337 99.5t122 274.5q0 172 -122 271.5t-337 99.5h-854v-745h854z" />
    <glyph glyph-name="Q" unicode="Q" horiz-adv-x="1996" 
d="M1845 717q0 -217 -90.5 -382t-259.5 -261l225 -258l-45 -39l-235 268q-192 -86 -441 -86q-265 0 -456.5 93.5t-290 264t-98.5 400.5t98.5 400.5t290 264t456.5 93.5q398 0 622 -204.5t224 -553.5zM999 20q221 0 396 76l-267 303l46 39l276 -315q157 87 241.5 238.5
t84.5 355.5q0 218 -96.5 376t-271 239t-409.5 81q-357 0 -567.5 -184t-210.5 -512t210.5 -512.5t567.5 -184.5z" />
    <glyph glyph-name="R" unicode="R" horiz-adv-x="1882" 
d="M1761 0h-86l-520 590h-821v-590h-66v1434h924q240 0 382 -113t142 -307q0 -187 -128 -299t-349 -123zM334 651h856q215 0 337 96t122 267q0 168 -122.5 263t-336.5 95h-856v-721z" />
    <glyph glyph-name="S" unicode="S" horiz-adv-x="1763" 
d="M930 768q136 -13 238 -30.5t195.5 -46.5t153 -69t94 -98.5t34.5 -134.5q0 -188 -191 -309t-532 -121q-261 0 -471 80t-330 231l49 45q115 -148 311 -221.5t443 -73.5q308 0 480.5 103.5t172.5 263.5q0 53 -20.5 95t-63 73.5t-98 55t-136.5 42t-166.5 31t-199.5 23.5
q-86 9 -155.5 18.5t-146 25t-135 35t-113.5 47.5t-90.5 62.5t-57 80.5t-21.5 101q0 94 59 171t158.5 126t225 75t262.5 26q230 0 404 -64.5t282 -183.5l-56 -41q-197 224 -628 227q-88 1 -177.5 -12t-172.5 -40.5t-147.5 -66t-103 -94.5t-38.5 -121q0 -52 24.5 -94.5
t72.5 -73.5t107 -54t141.5 -40t162 -28t180.5 -21z" />
    <glyph glyph-name="T" unicode="T" horiz-adv-x="1601" 
d="M1546 1434v-62h-712v-1372h-66v1372h-713v62h1491z" />
    <glyph glyph-name="U" unicode="U" horiz-adv-x="1923" 
d="M1620 1434h66v-758q0 -155 -47 -285t-136 -227t-227.5 -151t-312.5 -54q-140 0 -257.5 35t-203 99t-145.5 153.5t-89.5 198t-29.5 231.5v758h65v-756q0 -301 175.5 -479.5t484.5 -178.5q307 0 482 178.5t175 479.5v756z" />
    <glyph glyph-name="V" unicode="V" horiz-adv-x="1757" 
d="M53 1434h74l754 -1358l751 1358h72l-791 -1434h-69z" />
    <glyph glyph-name="W" unicode="W" horiz-adv-x="2420" 
d="M2267 1434h70l-535 -1434h-67l-525 1350l-524 -1350h-68l-534 1434h72l495 -1346l527 1346h67l524 -1346z" />
    <glyph glyph-name="X" unicode="X" horiz-adv-x="1601" 
d="M1542 1434l-696 -715l698 -719h-90l-655 672l-654 -672h-86l699 717l-699 717h88l656 -672l653 672h86z" />
    <glyph glyph-name="Y" unicode="Y" horiz-adv-x="1660" 
d="M57 1434h82l695 -861l690 861h80l-740 -924v-510h-65v510z" />
    <glyph glyph-name="Z" unicode="Z" horiz-adv-x="1658" 
d="M1528 1434v-52l-1335 -1321h1368v-61h-1467v51l1333 1321h-1296v62h1397z" />
    <glyph glyph-name="a" unicode="a" horiz-adv-x="1523" 
d="M739 1149q270 0 421 -137t151 -400v-393q0 -124 53 -219h-70q-49 83 -49 213v10q-57 -120 -206 -192t-337 -72q-79 0 -158 12.5t-157.5 42.5t-138 73.5t-96.5 111.5t-37 151q0 70 25.5 129.5t70.5 101.5t102.5 74t124.5 51t133 28t131 9q188 0 337.5 -71t205.5 -193v131
q0 234 -129.5 357t-380.5 123q-282 0 -487 -146l-33 49q97 70 235.5 113t288.5 43zM1247 303v96q-41 94 -126.5 160t-191 96.5t-224.5 30.5q-66 0 -133.5 -9.5t-139.5 -34t-126.5 -61t-90 -96.5t-35.5 -135t35.5 -134.5t90 -96t126.5 -60.5t139.5 -33.5t133.5 -9.5
q118 0 224 30.5t191.5 97t126.5 159.5z" />
    <glyph glyph-name="b" unicode="b" 
d="M870 1149q192 0 332.5 -76t212.5 -210t72 -310q0 -268 -164 -431t-453 -163q-193 0 -342.5 80t-232.5 223v-262h-64v1516h64v-670q83 143 232.5 223t342.5 80zM862 18q261 0 410 144t149 391q0 249 -149 393t-410 144q-189 0 -335 -84t-232 -242v-420q86 -158 232 -242
t335 -84z" />
    <glyph glyph-name="c" unicode="c" horiz-adv-x="1472" 
d="M1360 217q-78 -123 -221 -190.5t-340 -67.5q-309 0 -483.5 160.5t-174.5 433.5q0 274 174.5 435t483.5 161q194 0 335.5 -66t221.5 -186l-58 -33q-69 111 -199 168.5t-300 57.5q-276 0 -434 -140t-158 -397q0 -256 158.5 -395.5t433.5 -139.5q173 0 303.5 59t200.5 173z
" />
    <glyph glyph-name="d" unicode="d" 
d="M758 1149q193 0 342.5 -80t232.5 -223v670h64v-1516h-64v262q-83 -143 -232.5 -223t-342.5 -80q-289 0 -453 163t-164 431q0 176 72 310t212.5 210t332.5 76zM766 18q189 0 335 84t232 242v420q-86 158 -232 242t-335 84q-261 0 -410 -144t-149 -393q0 -247 149 -391
t410 -144z" />
    <glyph glyph-name="e" unicode="e" horiz-adv-x="1552" 
d="M791 1149q295 0 461 -151t175 -416q0 -4 -1 -7t-1 -4h-59h-1159v-18q0 -257 156.5 -397t431.5 -140q185 0 316 46t237 149l41 -49q-112 -107 -253.5 -155t-342.5 -48q-307 0 -479.5 160.5t-172.5 433.5q0 274 172 435t478 161zM791 1092q-251 0 -404 -120.5t-176 -342.5
h1147q-23 224 -171 343.5t-396 119.5z" />
    <glyph glyph-name="f" unicode="f" horiz-adv-x="925" 
d="M348 1268v-160h543v-59h-543v-1049h-65v1049h-238v59h238v158q0 72 26.5 129t70 91t97 52t111.5 18q195 0 319 -112l-33 -45q-110 102 -282 102q-102 0 -173 -61.5t-71 -171.5z" />
    <glyph glyph-name="g" unicode="g" 
d="M1397 1108v-1018q0 -176 -81 -300t-218.5 -182.5t-319.5 -58.5q-298 0 -516 160l35 51q212 -151 479 -151q263 0 409 124.5t146 354.5v174q-80 -142 -231.5 -222.5t-343.5 -80.5q-287 0 -451 163t-164 431q0 269 164 432.5t451 163.5q194 0 344.5 -80t230.5 -223v262h66z
M764 18q191 0 337 83.5t230 242.5v420q-84 159 -230 242.5t-337 83.5q-260 0 -408.5 -144t-148.5 -393q0 -247 148.5 -391t408.5 -144z" />
    <glyph glyph-name="h" unicode="h" horiz-adv-x="1599" 
d="M860 1149q133 0 234.5 -40t164 -112t94 -168.5t31.5 -214.5v-614h-63v612q0 228 -116.5 353t-350.5 125q-188 0 -332 -84.5t-227 -257.5v-748h-64v1516h64v-680q77 148 224.5 230.5t340.5 82.5z" />
    <glyph glyph-name="i" unicode="i" horiz-adv-x="536" 
d="M268 1305q-29 0 -46 17t-17 44t17 43t46 16q28 0 46 -16.5t18 -42.5t-18 -43.5t-46 -17.5zM303 1108v-1108h-63v1108h63z" />
    <glyph glyph-name="j" unicode="j" horiz-adv-x="536" 
d="M268 1305q-29 0 -46 17t-17 42q0 27 17 44t46 17q28 0 46 -17.5t18 -43.5q0 -25 -18 -42t-46 -17zM236 1108h65v-1286q0 -127 -70 -200t-180 -73q-98 0 -170 37l25 54q48 -31 139 -31q89 0 140 60.5t51 160.5v1278z" />
    <glyph glyph-name="k" unicode="k" horiz-adv-x="1386" 
d="M1272 0l-578 641l-399 -297v-344h-64v1516h64v-1100l926 692h92l-568 -430l609 -678h-82z" />
    <glyph glyph-name="l" unicode="l" horiz-adv-x="542" 
d="M303 0h-63v1516h63v-1516z" />
    <glyph glyph-name="m" unicode="m" horiz-adv-x="2523" 
d="M1825 1149q127 0 222.5 -41t152 -114.5t83.5 -166.5t27 -206v-621h-65v618q0 218 -105 345t-323 127q-177 0 -312 -93t-209 -264q7 -65 7 -112v-621h-64v618q0 218 -105 345t-323 127q-178 0 -309 -87.5t-207 -252.5v-750h-64v1108h64v-268q68 142 208 225.5t314 83.5
q197 0 312.5 -93.5t152.5 -254.5q66 165 213.5 256.5t329.5 91.5z" />
    <glyph glyph-name="n" unicode="n" horiz-adv-x="1599" 
d="M295 0h-64v1108h64v-272q77 148 224.5 230.5t340.5 82.5q133 0 234.5 -40t164 -112t94 -168.5t31.5 -214.5v-614h-63v612q0 228 -116.5 353t-350.5 125q-188 0 -332 -84.5t-227 -257.5v-748z" />
    <glyph glyph-name="o" unicode="o" horiz-adv-x="1597" 
d="M799 -41q-309 0 -483.5 160.5t-174.5 433.5q0 274 174.5 435t483.5 161t483 -161t174 -435q0 -273 -174 -433.5t-483 -160.5zM799 18q274 0 432 139.5t158 395.5q0 257 -158 397t-432 140t-433 -140t-159 -397q0 -256 159 -395.5t433 -139.5z" />
    <glyph glyph-name="p" unicode="p" 
d="M870 -41q-193 0 -342.5 80t-232.5 223v-672h-64v1518h64v-262q83 143 232.5 223t342.5 80q289 0 453 -163t164 -431q0 -176 -72 -310t-212.5 -210t-332.5 -76zM862 1090q-189 0 -335 -84t-232 -242v-420q86 -158 232 -242t335 -84q261 0 410 144t149 393q0 247 -149 391
t-410 144z" />
    <glyph glyph-name="q" unicode="q" 
d="M756 -41q-287 0 -451 163.5t-164 432.5q0 268 164 431t451 163q194 0 344.5 -80t230.5 -223v262h66v-1518h-66v672q-80 -143 -230.5 -223t-344.5 -80zM764 1090q-260 0 -408.5 -144t-148.5 -391q0 -249 148.5 -393t408.5 -144q190 0 336 84t231 242v420q-85 158 -231 242
t-336 84z" />
    <glyph glyph-name="r" unicode="r" horiz-adv-x="923" 
d="M295 0h-64v1108h64v-305q66 148 230.5 235.5t361.5 87.5v-61q-202 0 -361.5 -92t-230.5 -266v-707z" />
    <glyph glyph-name="s" unicode="s" horiz-adv-x="1404" 
d="M735 602q131 -11 228 -32t174 -56t117 -89.5t40 -127.5q0 -147 -149 -242.5t-418 -95.5q-201 0 -360 65t-256 187l47 37q186 -232 569 -232q238 0 369 77.5t131 201.5q0 61 -35 105t-107.5 72.5t-161.5 44.5t-218 28q-96 9 -168 20t-148 33t-124.5 51.5t-79.5 76.5
t-31 108q0 98 77 171t199 108.5t268 35.5q170 0 304 -53t223 -142l-47 -43q-169 178 -482 181q-84 1 -166.5 -15t-153 -46t-114 -81t-43.5 -114q0 -35 15 -64.5t39.5 -51t64 -39t80.5 -29.5t97 -22t106 -16t114 -12z" />
    <glyph glyph-name="t" unicode="t" horiz-adv-x="933" 
d="M874 111l29 -50q-150 -102 -303 -102q-132 0 -224.5 75t-92.5 210v805h-238v59h238v258h65v-258h547v-59h-547v-797q0 -110 73.5 -172t182.5 -62q123 0 270 93z" />
    <glyph glyph-name="u" unicode="u" horiz-adv-x="1599" 
d="M1305 1108h63v-1108h-63v272q-77 -148 -225 -230.5t-341 -82.5q-133 0 -234.5 40t-164 112t-94 168.5t-31.5 214.5v614h64v-612q0 -228 116 -353t350 -125q189 0 334 85t226 257v748z" />
    <glyph glyph-name="v" unicode="v" horiz-adv-x="1409" 
d="M1343 1108l-604 -1108h-67l-606 1108h73l568 -1036l565 1036h71z" />
    <glyph glyph-name="w" unicode="w" horiz-adv-x="1982" 
d="M1829 1108h67l-432 -1108h-65l-408 1030l-409 -1030h-66l-430 1108h70l397 -1028l405 1028h68l406 -1028z" />
    <glyph glyph-name="x" unicode="x" horiz-adv-x="1294" 
d="M1223 1108l-535 -553l535 -555h-84l-492 512l-493 -512h-82l534 555l-534 553h84l491 -512l494 512h82z" />
    <glyph glyph-name="y" unicode="y" horiz-adv-x="1423" 
d="M1286 1108h72l-907 -1518h-74l301 494l-612 1024h73l576 -954z" />
    <glyph glyph-name="z" unicode="z" horiz-adv-x="1327" 
d="M1202 1108v-49l-1012 -1002h1039v-59h-1135v49l1012 1002h-983v59h1079z" />
    </font>
</defs>
</svg>
